<svg xmlns="http://www.w3.org/2000/svg" viewBox="0 0 1600 900" width="1600" height="900" role="img" aria-label="TinDev space intro with animated globe">
  <defs>
    <radialGradient id="bgGlowRight" cx="72%" cy="50%" r="38%">
      <stop offset="0%" stop-color="#ffffff" stop-opacity="0.12"/>
      <stop offset="48%" stop-color="#7db4ff" stop-opacity="0.045"/>
      <stop offset="100%" stop-color="#03040a" stop-opacity="0"/>
    </radialGradient>

    <radialGradient id="bgGlowLeft" cx="18%" cy="28%" r="34%">
      <stop offset="0%" stop-color="#7d82ff" stop-opacity="0.12"/>
      <stop offset="100%" stop-color="#03040a" stop-opacity="0"/>
    </radialGradient>

    <linearGradient id="bgMain" x1="0" y1="0" x2="1" y2="1">
      <stop offset="0%" stop-color="#01020a"/>
      <stop offset="48%" stop-color="#050712"/>
      <stop offset="100%" stop-color="#02030a"/>
    </linearGradient>

    <linearGradient id="lineGlow" x1="0" y1="0" x2="1" y2="0">
      <stop offset="0%" stop-color="#ffffff" stop-opacity="1"/>
      <stop offset="100%" stop-color="#ffffff" stop-opacity="0"/>
    </linearGradient>

    <filter id="softGlow" x="-80%" y="-80%" width="260%" height="260%">
      <feGaussianBlur stdDeviation="7" result="blur"/>
      <feMerge>
        <feMergeNode in="blur"/>
        <feMergeNode in="SourceGraphic"/>
      </feMerge>
    </filter>

    <filter id="cardBlurGlow" x="-40%" y="-40%" width="180%" height="180%">
      <feGaussianBlur stdDeviation="12" result="blur"/>
      <feColorMatrix in="blur" type="matrix" values="1 0 0 0 1  0 1 0 0 1  0 0 1 0 1  0 0 0 .18 0" result="glow"/>
      <feMerge>
        <feMergeNode in="glow"/>
        <feMergeNode in="SourceGraphic"/>
      </feMerge>
    </filter>

    <clipPath id="globeClip">
      <circle cx="1110" cy="450" r="210"/>
    </clipPath>

    <style>
      .title {
        font-family: Arial, Helvetica, sans-serif;
        font-size: 76px;
        font-weight: 900;
        fill: #fff;
        letter-spacing: -2px;
      }

      .subtitle {
        font-family: Arial, Helvetica, sans-serif;
        font-size: 34px;
        font-weight: 700;
        fill: rgba(255,255,255,0.72);
      }

      .desc {
        font-family: Arial, Helvetica, sans-serif;
        font-size: 22px;
        font-weight: 600;
        fill: rgba(255,255,255,0.72);
      }

      .descStrong {
        font-family: Arial, Helvetica, sans-serif;
        font-size: 22px;
        font-weight: 900;
        fill: #fff;
      }

      .badgeText {
        font-family: Arial, Helvetica, sans-serif;
        font-size: 15px;
        font-weight: 800;
        letter-spacing: 2px;
        fill: rgba(255,255,255,0.72);
      }

      .tagText {
        font-family: Arial, Helvetica, sans-serif;
        font-size: 16px;
        font-weight: 800;
        fill: rgba(255,255,255,0.78);
      }

      .starTiny { fill: rgba(255,255,255,0.72); }
      .starSoft { fill: rgba(255,255,255,0.35); }
      .starBlue { fill: rgba(125,180,255,0.50); }

      .globeLineStrong {
        fill: none;
        stroke: rgba(255,255,255,0.90);
        stroke-width: 2.1;
        filter: url(#softGlow);
      }

      .globeLineSoft {
        fill: none;
        stroke: rgba(255,255,255,0.34);
        stroke-width: 1.45;
      }

      .globeHalo {
        fill: none;
        stroke: rgba(255,255,255,0.18);
        stroke-width: 24;
        filter: url(#softGlow);
      }

      .twinkleA { animation: twinkleA 4.8s ease-in-out infinite alternate; }
      .twinkleB { animation: twinkleB 5.8s ease-in-out infinite alternate; }

      @keyframes twinkleA {
        from { opacity: .28; }
        to { opacity: .88; }
      }

      @keyframes twinkleB {
        from { opacity: .68; }
        to { opacity: .22; }
      }
    </style>
  </defs>

  <!-- Background -->
  <rect width="1600" height="900" fill="url(#bgMain)"/>
  <rect width="1600" height="900" fill="url(#bgGlowRight)"/>
  <rect width="1600" height="900" fill="url(#bgGlowLeft)"/>
  <radialGradient id="nebulaBottom" cx="22%" cy="78%" r="28%">
    <stop offset="0%" stop-color="#ffffff" stop-opacity="0.05"/>
    <stop offset="100%" stop-color="#03040a" stop-opacity="0"/>
  </radialGradient>
  <rect width="1600" height="900" fill="url(#nebulaBottom)"/>

  <!-- Stars -->
  <g class="twinkleA">
    <circle class="starTiny" cx="84" cy="104" r="1.4"/>
    <circle class="starTiny" cx="178" cy="212" r="1.1"/>
    <circle class="starTiny" cx="332" cy="86" r="1.3"/>
    <circle class="starTiny" cx="506" cy="158" r="1.0"/>
    <circle class="starTiny" cx="742" cy="82" r="1.2"/>
    <circle class="starTiny" cx="1118" cy="98" r="1.4"/>
    <circle class="starTiny" cx="1394" cy="132" r="1.1"/>
    <circle class="starTiny" cx="1510" cy="248" r="1.3"/>
    <circle class="starTiny" cx="1266" cy="726" r="1.2"/>
    <circle class="starTiny" cx="1438" cy="782" r="1.4"/>
    <circle class="starTiny" cx="272" cy="760" r="1.1"/>
    <circle class="starTiny" cx="96" cy="650" r="1.2"/>
  </g>

  <g class="twinkleB">
    <circle class="starSoft" cx="116" cy="332" r="1"/>
    <circle class="starSoft" cx="238" cy="442" r="1.1"/>
    <circle class="starSoft" cx="486" cy="642" r="1"/>
    <circle class="starSoft" cx="660" cy="544" r="1.2"/>
    <circle class="starSoft" cx="840" cy="228" r="1.1"/>
    <circle class="starSoft" cx="956" cy="706" r="1"/>
    <circle class="starSoft" cx="1048" cy="202" r="1.1"/>
    <circle class="starSoft" cx="1160" cy="802" r="1"/>
    <circle class="starSoft" cx="1328" cy="510" r="1.2"/>
    <circle class="starSoft" cx="1542" cy="620" r="1"/>
  </g>

  <g opacity="0.58">
    <circle class="starBlue" cx="294" cy="318" r="1.8" filter="url(#softGlow)"/>
    <circle class="starBlue" cx="912" cy="138" r="1.6" filter="url(#softGlow)"/>
    <circle class="starBlue" cx="1376" cy="350" r="1.7" filter="url(#softGlow)"/>
    <circle class="starBlue" cx="760" cy="794" r="1.6" filter="url(#softGlow)"/>
  </g>

  <!-- Intro card -->
  <g transform="translate(78 118)" filter="url(#cardBlurGlow)">
    <rect x="0" y="0" width="560" height="470" rx="24" fill="rgba(5,7,18,0.34)" stroke="rgba(255,255,255,0.16)"/>
    <circle cx="72" cy="42" r="145" fill="rgba(255,255,255,0.10)" opacity="0.22"/>

    <g transform="translate(30 30)">
      <rect x="0" y="0" width="298" height="40" rx="20" fill="rgba(255,255,255,0.045)" stroke="rgba(255,255,255,0.16)"/>
      <text class="badgeText" x="20" y="26">DEVELOPER • AUTOMATION • API</text>
    </g>

    <text class="title" x="30" y="132">Hi there 👋</text>
    <text class="subtitle" x="30" y="178">I'm TinDev</text>

    <text x="30" y="232">
      <tspan class="desc">I'm a developer passionate about </tspan>
      <tspan class="descStrong">coding</tspan>
      <tspan class="desc">,</tspan>
    </text>

    <text x="30" y="272">
      <tspan class="descStrong">automation</tspan>
      <tspan class="desc">, </tspan>
      <tspan class="descStrong">APIs</tspan>
      <tspan class="desc">, and </tspan>
      <tspan class="descStrong">web development</tspan>
      <tspan class="desc">.</tspan>
    </text>

    <text x="30" y="312" class="desc">I enjoy turning ideas into clean, useful,</text>
    <text x="30" y="352" class="desc">and powerful digital tools.</text>

    <g transform="translate(30 378)">
      <rect x="0" y="0" width="72" height="35" rx="17.5" fill="rgba(255,255,255,0.04)" stroke="rgba(255,255,255,0.14)"/>
      <text class="tagText" x="36" y="23" text-anchor="middle">Python</text>

      <rect x="86" y="0" width="90" height="35" rx="17.5" fill="rgba(255,255,255,0.04)" stroke="rgba(255,255,255,0.14)"/>
      <text class="tagText" x="131" y="23" text-anchor="middle">Web Dev</text>

      <rect x="190" y="0" width="116" height="35" rx="17.5" fill="rgba(255,255,255,0.04)" stroke="rgba(255,255,255,0.14)"/>
      <text class="tagText" x="248" y="23" text-anchor="middle">Automation</text>

      <rect x="320" y="0" width="104" height="35" rx="17.5" fill="rgba(255,255,255,0.04)" stroke="rgba(255,255,255,0.14)"/>
      <text class="tagText" x="372" y="23" text-anchor="middle">API Tools</text>
    </g>

    <rect x="30" y="445" width="84" height="3" rx="1.5" fill="url(#lineGlow)" filter="url(#softGlow)"/>
  </g>

  <!-- Globe -->
  <g id="globe" transform="translate(1110 450)">
    <animateTransform attributeName="transform" type="translate" values="1110 450;1110 450" dur="1s" repeatCount="indefinite"/>
  </g>

  <g clip-path="url(#globeClip)">
    <g>
      <animateTransform attributeName="transform" type="rotate" from="0 1110 450" to="360 1110 450" dur="26s" repeatCount="indefinite"/>

      <!-- Latitude rings -->
      <ellipse class="globeLineSoft" cx="1110" cy="450" rx="210" ry="210"/>
      <ellipse class="globeLineStrong" cx="1110" cy="450" rx="210" ry="20"/>
      <ellipse class="globeLineSoft" cx="1110" cy="405" rx="204" ry="18"/>
      <ellipse class="globeLineSoft" cx="1110" cy="495" rx="204" ry="18"/>
      <ellipse class="globeLineSoft" cx="1110" cy="360" rx="178" ry="16"/>
      <ellipse class="globeLineSoft" cx="1110" cy="540" rx="178" ry="16"/>
      <ellipse class="globeLineSoft" cx="1110" cy="315" rx="132" ry="12"/>
      <ellipse class="globeLineSoft" cx="1110" cy="585" rx="132" ry="12"/>

      <!-- Longitude rings -->
      <ellipse class="globeLineStrong" cx="1110" cy="450" rx="210" ry="210" transform="rotate(0 1110 450)"/>
      <ellipse class="globeLineSoft" cx="1110" cy="450" rx="65" ry="210" transform="rotate(0 1110 450)"/>
      <ellipse class="globeLineSoft" cx="1110" cy="450" rx="65" ry="210" transform="rotate(22.5 1110 450)"/>
      <ellipse class="globeLineSoft" cx="1110" cy="450" rx="65" ry="210" transform="rotate(45 1110 450)"/>
      <ellipse class="globeLineStrong" cx="1110" cy="450" rx="65" ry="210" transform="rotate(67.5 1110 450)"/>
      <ellipse class="globeLineSoft" cx="1110" cy="450" rx="65" ry="210" transform="rotate(90 1110 450)"/>
      <ellipse class="globeLineSoft" cx="1110" cy="450" rx="65" ry="210" transform="rotate(112.5 1110 450)"/>
      <ellipse class="globeLineSoft" cx="1110" cy="450" rx="65" ry="210" transform="rotate(135 1110 450)"/>
      <ellipse class="globeLineStrong" cx="1110" cy="450" rx="65" ry="210" transform="rotate(157.5 1110 450)"/>
    </g>
  </g>

  <circle class="globeHalo" cx="1110" cy="450" r="210"/>
  <circle cx="1110" cy="450" r="214" fill="none" stroke="rgba(255,255,255,0.22)" stroke-width="1.4"/>

  <!-- Soft vignette -->
  <rect width="1600" height="900" fill="rgba(3,4,10,0.10)"/>
  <radialGradient id="vignette" cx="72%" cy="50%" r="68%">
    <stop offset="0%" stop-color="#03040a" stop-opacity="0"/>
    <stop offset="56%" stop-color="#03040a" stop-opacity="0.18"/>
    <stop offset="100%" stop-color="#03040a" stop-opacity="0.72"/>
  </radialGradient>
  <rect width="1600" height="900" fill="url(#vignette)" pointer-events="none"/>
</svg>
